<svg width="1050" height="147" viewBox="0 0 1050 147" fill="none" xmlns="http://www.w3.org/2000/svg">
<g clip-path="url(#clip0_93_12432)">
<path d="M533.426 22.0637C532.847 20.1312 532.009 18.2631 530.914 16.4594C529.819 14.6558 528.423 12.7232 526.748 10.6619C523.399 6.92574 519.426 4.34907 514.853 2.93191C510.279 1.51474 505.298 0.806152 499.887 0.806152H440.945V146.753H464.715V85.643H499.887C505.298 85.643 510.279 84.9344 514.853 83.5173C519.426 82.1001 523.377 79.5234 526.748 75.7872C530.227 71.6646 532.46 67.6707 533.426 63.8057C534.393 59.9407 534.865 55.496 534.865 50.4715V35.0114C534.865 32.5636 534.779 30.2661 534.586 28.1618C534.393 26.036 534.006 23.9962 533.426 22.0852V22.0637ZM511.095 51.2445C511.095 55.1095 510.322 57.8579 508.776 59.4683C507.23 61.0788 504.46 61.8732 500.466 61.8732H464.715V24.5759H500.466C504.331 24.5759 507.058 25.3489 508.69 26.8949C510.301 28.4409 511.095 31.1464 511.095 35.0114V51.2445Z" fill="white"/>
<path d="M176.879 15.5361V0.806152H153.131V146.732H234.962V122.962H176.901C176.901 122.962 176.901 15.6005 176.901 15.5361H176.879Z" fill="white"/>
<path d="M56.2919 53.5635L18.8873 0.806152H0.850586V146.732H24.5989V50.085C24.5989 50.085 47.5098 82.2289 49.249 83.9038C50.9883 85.5786 53.3288 86.416 56.2919 86.416C59.2551 86.416 61.4453 85.5357 63.2489 83.8179C65.0526 82.0786 84.5065 55.0021 87.985 50.085V146.732H111.755V0.806152H93.6966L56.2919 53.5849V53.5635Z" fill="white"/>
<path d="M278.166 57.9229H250.23V81.6926H278.166V57.9229Z" fill="white"/>
<path d="M943.998 0.806152V24.5759L984.817 24.5545V146.753H1008.59V24.5545L1049.6 24.5759V0.806152H943.998Z" fill="white"/>
<path d="M893.409 90.4748L842.841 0.785156H823.237V146.754H847.029V57.0425L897.853 146.754H917.135L917.178 0.806629H893.387L893.409 90.4748Z" fill="white"/>
<path d="M636.903 57.8155H590.523V0.785156H566.753V146.754H590.523V81.5852H636.903L636.881 146.754H660.651V0.785156H636.881L636.903 57.8155Z" fill="white"/>
<path d="M321.151 146.71H410.347V122.962H344.9V81.5848L393.985 81.6277V57.8579L344.9 57.815V24.5759H410.347V0.806152H321.151V146.71Z" fill="white"/>
<path d="M792.405 62.4535C792.212 60.7142 791.524 58.932 790.365 57.1283L755.666 0.785156H728.246L693.525 57.1498C692.366 58.9535 691.678 60.7357 691.485 62.4749C691.292 64.2142 691.206 65.7817 691.206 67.2203V146.732H714.954V99.6649H768.893V146.732H792.641V67.1988C792.641 65.7817 792.534 64.1927 792.34 62.4535H792.405ZM768.914 75.7662H714.976V67.7786L741.945 22.5795L768.914 67.7786V75.7662Z" fill="white"/>
</g>
<defs>
<clipPath id="clip0_93_12432">
<rect width="1049.16" height="146.054" fill="white" transform="translate(0.636719 0.742188)"/>
</clipPath>
</defs>
</svg>
